<?xml version="1.0" encoding="utf-8"?>
<svg version="1.1" xmlns:xlink="http://www.w3.org/1999/xlink" width="50px" height="50px" xmlns="http://www.w3.org/2000/svg">
  <g transform="matrix(1 0 0 1 -10 -76 )">
    <path d="M 10 76  L 60 76  L 60 126  L 10 126  L 10 76  " fill-rule="nonzero" fill="#cccccc" stroke="none" />
    <path d="M 14 80  L 56 80  L 56 122  L 14 122  L 14 80  " fill-rule="nonzero" fill="#ffffff" stroke="none" />
    <path d="M 39.75 91  C 37.65 91  36 89.35  36 87.25  C 36 85.15  37.65 83.5  39.75 83.5  C 41.85 83.5  43.5 85.15  43.5 87.25  C 43.5 89.35  41.85 91  39.75 91  " fill-rule="nonzero" fill="#cccccc" stroke="none" />
    <path d="M 16 121  L 16 99.55  L 25.75 89.8  L 39.4 97.6  L 47.2 95.65  L 55 97.6  L 55 121  L 16 121  " fill-rule="nonzero" fill="#169bd5" stroke="none" />
  </g>
</svg>