<?xml version="1.0" encoding="utf-8"?>
<svg version="1.1" xmlns:xlink="http://www.w3.org/1999/xlink" width="80px" height="80px" xmlns="http://www.w3.org/2000/svg">
  <g transform="matrix(1 0 0 1 -106 -355 )">
    <path d="M 78.4090909090909 30.6818181818182  C 79.469696969697 31.7424242424242  80 33.030303030303  80 34.5454545454545  L 80 45.4545454545455  C 80 46.969696969697  79.469696969697 48.2575757575758  78.4090909090909 49.3181818181818  C 77.3484848484849 50.3787878787879  76.0606060606061 50.9090909090909  74.5454545454545 51  L 51 51  L 51 74.5454545454545  C 50.9090909090909 76.0606060606061  50.3787878787879 77.3484848484848  49.3181818181818 78.4090909090909  C 48.2575757575758 79.469696969697  46.969696969697 80  45.4545454545455 80  L 34.5454545454545 80  C 33.030303030303 80  31.7424242424242 79.469696969697  30.6818181818182 78.4090909090909  C 29.6212121212121 77.3484848484848  29.0909090909091 76.0606060606061  29 74.5454545454545  L 29 51  L 5.45454545454545 51  C 3.93939393939394 50.9090909090909  2.65151515151515 50.3787878787879  1.59090909090909 49.3181818181818  C 0.53030303030303 48.2575757575758  0 46.969696969697  0 45.4545454545455  L 0 34.5454545454545  C 0 33.030303030303  0.53030303030303 31.7424242424242  1.59090909090909 30.6818181818182  C 2.65151515151515 29.6212121212121  3.93939393939394 29.0909090909091  5.45454545454545 29  L 29 29  L 29 5.45454545454546  C 29.0909090909091 3.93939393939394  29.6212121212121 2.65151515151515  30.6818181818182 1.59090909090909  C 31.7424242424242 0.530303030303028  33.030303030303 0  34.5454545454545 0  L 45.4545454545455 0  C 46.969696969697 0  48.2575757575758 0.530303030303028  49.3181818181818 1.59090909090909  C 50.3787878787879 2.65151515151515  50.9090909090909 3.93939393939394  51 5.45454545454546  L 51 29  L 74.5454545454545 29  C 76.0606060606061 29.0909090909091  77.3484848484849 29.6212121212121  78.4090909090909 30.6818181818182  Z " fill-rule="nonzero" fill="#d7d7d7" stroke="none" transform="matrix(1 0 0 1 106 355 )" />
  </g>
</svg>