<?xml version="1.0" encoding="utf-8"?>
<svg version="1.1" xmlns:xlink="http://www.w3.org/1999/xlink" width="20px" height="30px" xmlns="http://www.w3.org/2000/svg">
  <g transform="matrix(1 0 0 1 -25 -449 )">
    <path d="M 13.53515625 13.53515625  C 14.51171875 12.55859375  15 11.3802083333333  15 10  C 15 8.61979166666666  14.51171875 7.44140625  13.53515625 6.46484375  C 12.55859375 5.48828125  11.3802083333333 5  10 5  C 8.61979166666667 5  7.44140625 5.48828125  6.46484375 6.46484375  C 5.48828125 7.44140625  5 8.61979166666666  5 10  C 5 11.3802083333333  5.48828125 12.55859375  6.46484375 13.53515625  C 7.44140625 14.51171875  8.61979166666667 15  10 15  C 11.3802083333333 15  12.55859375 14.51171875  13.53515625 13.53515625  Z M 17.0703125 2.9296875  C 19.0234375 4.8828125  20 7.23958333333333  20 10  C 20 11.4192708333333  19.78515625 12.5846354166667  19.35546875 13.49609375  L 12.24609375 28.61328125  C 12.0377604166667 29.04296875  11.728515625 29.3815104166667  11.318359375 29.62890625  C 10.908203125 29.8763020833333  10.46875 30  10 30  C 9.53125 30  9.091796875 29.8763020833333  8.681640625 29.62890625  C 8.271484375 29.3815104166667  7.96875 29.04296875  7.7734375 28.61328125  L 0.64453125 13.49609375  C 0.21484375 12.5846354166667  0 11.4192708333333  0 10  C 0 7.23958333333333  0.9765625 4.8828125  2.9296875 2.9296875  C 4.8828125 0.976562500000001  7.23958333333333 0  10 0  C 12.7604166666667 0  15.1171875 0.976562500000001  17.0703125 2.9296875  Z " fill-rule="nonzero" fill="#7f7f7f" stroke="none" transform="matrix(1 0 0 1 25 449 )" />
  </g>
</svg>