<?xml version="1.0" encoding="utf-8"?>
<svg version="1.1" xmlns:xlink="http://www.w3.org/1999/xlink" width="20px" height="13px" xmlns="http://www.w3.org/2000/svg">
  <g transform="matrix(1 0 0 1 -308 -4 )">
    <path d="M 10.9470468431772 11.8224516129032  C 10.4514596062457 12.2608172043011  10.1357773251867 12.48  10 12.48  C 9.86422267481333 12.48  9.54854039375425 12.2608172043011  9.05295315682281 11.8224516129032  C 8.55736591989137 11.3840860215054  8.30957230142565 11.1052616487455  8.30957230142565 10.9859784946237  C 8.30957230142565 10.7951254480287  8.52172437202989 10.6340931899642  8.94602851323828 10.5028817204301  C 9.37033265444671 10.3716702508961  9.72165648336727 10.306064516129  10 10.306064516129  C 10.2783435166327 10.306064516129  10.6296673455533 10.3716702508961  11.0539714867617 10.5028817204301  C 11.4782756279701 10.6340931899642  11.6904276985744 10.7951254480287  11.6904276985744 10.9859784946237  C 11.6904276985744 11.1052616487455  11.4426340801086 11.3840860215054  10.9470468431772 11.8224516129032  Z M 13.7016293279023 9.38460215053765  C 13.1890699253225 9.83191397849462  12.8716904276986 10.0555698924731  12.7494908350305 10.0555698924731  C 12.7359131025119 10.0555698924731  12.6001357773252 9.98101792114696  12.3421588594705 9.83191397849462  C 12.0841819416157 9.68281003584231  11.7396469789545 9.53370609318996  11.3085539714868 9.38460215053765  C 10.877460964019 9.23549820788531  10.4412763068568 9.16094623655913  10 9.16094623655913  C 9.55872369314324 9.16094623655913  9.12253903598099 9.23549820788531  8.69144602851321 9.38460215053765  C 8.26035302104549 9.53370609318996  7.9175152749491 9.68281003584231  7.66293279022403 9.83191397849462  C 7.40835030549897 9.98101792114696  7.27087576374743 10.0555698924731  7.25050916496946 10.0555698924731  C 7.12830957230142 10.0555698924731  6.81093007467751 9.83191397849462  6.29837067209775 9.38460215053765  C 5.78581126951798 8.93729032258065  5.52953156822809 8.65995698924732  5.52953156822809 8.55260215053764  C 5.52953156822809 8.47506810035843  5.5634758995248 8.40648028673834  5.63136456211811 8.34683870967742  C 6.16089613034626 7.88759856630824  6.82620502376102 7.52676702508961  7.6272912423625 7.2643440860215  C 8.42837746096404 7.00192114695342  9.21928038017649 6.87070967741936  10 6.87070967741936  C 10.7807196198235 6.87070967741936  11.571622539036 7.00192114695342  12.3727087576375 7.2643440860215  C 13.173794976239 7.52676702508961  13.8391038696537 7.88759856630824  14.3686354378819 8.34683870967742  C 14.4365241004752 8.40648028673834  14.4704684317719 8.47506810035843  14.4704684317719 8.55260215053764  C 14.4704684317719 8.65995698924732  14.214188730482 8.93729032258065  13.7016293279023 9.38460215053765  Z M 16.4663951120163 6.95122580645162  C 15.9572301425662 7.3985376344086  15.6449422946368 7.62219354838711  15.5295315682281 7.62219354838711  C 15.4548540393754 7.62219354838711  15.3767820773931 7.59833691756273  15.2953156822811 7.55062365591398  C 14.3720298710115 6.9243870967742  13.5166327223354 6.4636559139785  12.7291242362526 6.16843010752689  C 11.9416157501697 5.87320430107527  11.0319076714189 5.72559139784948  10 5.72559139784948  C 9.42294636795657 5.72559139784948  8.84419551934826 5.79119713261649  8.26374745417513 5.92240860215055  C 7.68329938900206 6.0536200716846  7.17752885268158 6.21167025089605  6.74643584521385 6.39655913978494  C 6.31534283774607 6.58144802867383  5.93007467752886 6.76633691756273  5.59063136456211 6.95122580645162  C 5.25118805159536 7.13611469534052  4.98302783435167 7.29416487455196  4.78615071283093 7.42537634408602  C 4.58927359131025 7.55658781362007  4.48404616429059 7.62219354838711  4.47046843177191 7.62219354838711  C 4.35505770536321 7.62219354838711  4.04276985743383 7.3985376344086  3.5336048879837 6.95122580645162  C 3.02443991853363 6.50391397849462  2.76985743380857 6.22658064516129  2.76985743380857 6.11922580645161  C 2.76985743380857 6.04765591397849  2.80380176510522 5.98205017921147  2.87169042769858 5.92240860215055  C 3.76782077393074 5.13513978494623  4.85403937542429 4.52381362007168  6.13034623217925 4.08843010752688  C 7.40665308893415 3.65304659498208  8.69653767820773 3.43535483870968  10 3.43535483870968  C 11.3034623217923 3.43535483870968  12.5933469110659 3.65304659498208  13.8696537678208 4.08843010752688  C 15.1459606245757 4.52381362007168  16.2321792260693 5.13513978494623  17.1283095723014 5.92240860215055  C 17.1961982348948 5.98205017921147  17.2301425661914 6.04765591397849  17.2301425661914 6.11922580645161  C 17.2301425661914 6.22658064516129  16.9755600814664 6.50391397849462  16.4663951120163 6.95122580645162  Z M 19.2311608961303 4.52679569892473  C 18.7186014935506 4.97410752688173  18.4046164290563 5.19776344086022  18.2892057026477 5.19776344086022  C 18.214528173795 5.19776344086022  18.1398506449423 5.1709247311828  18.0651731160896 5.11724731182796  C 16.8499660556687 4.18087455197133  15.5889341479973 3.47561290322581  14.2820773930754 3.0014623655914  C 12.9752206381534 2.52731182795699  11.5478615071283 2.29023655913978  10 2.29023655913978  C 8.45213849287171 2.29023655913978  7.02477936184658 2.52731182795699  5.71792260692462 3.0014623655914  C 4.41106585200271 3.47561290322581  3.15003394433131 4.18087455197133  1.93482688391038 5.11724731182796  C 1.86014935505773 5.1709247311828  1.78547182620503 5.19776344086022  1.71079429735232 5.19776344086022  C 1.59538357094362 5.19776344086022  1.28139850644942 4.97410752688173  0.768839103869652 4.52679569892473  C 0.256279701289884 4.07948387096774  0 3.80215053763441  0 3.69479569892473  C 0 3.61726164874552  0.0339443312966523 3.54867383512545  0.101832993890014 3.48903225806452  C 1.37135098438563 2.37969892473119  2.88187372708757 1.52086021505376  4.63340122199594 0.912516129032253  C 6.38492871690426 0.304172043010747  8.17379497623898 0  10 0  C 11.826205023761 0  13.6150712830957 0.304172043010747  15.3665987780041 0.912516129032253  C 17.1181262729124 1.52086021505376  18.6286490156144 2.37969892473119  19.89816700611 3.48903225806452  C 19.9660556687033 3.54867383512545  20 3.61726164874552  20 3.69479569892473  C 20 3.80215053763441  19.7437202987101 4.07948387096774  19.2311608961303 4.52679569892473  Z " fill-rule="nonzero" fill="#000000" stroke="none" transform="matrix(1 0 0 1 308 4 )" />
  </g>
</svg>