<?xml version="1.0" encoding="utf-8"?>
<svg version="1.1" xmlns:xlink="http://www.w3.org/1999/xlink" width="20px" height="10px" xmlns="http://www.w3.org/2000/svg">
  <g transform="matrix(1 0 0 1 -336 -5 )">
    <path d="M 2.22222222222223 2  L 16.6666666666667 2  L 16.6666666666667 7.46666666666665  L 2.22222222222223 7.46666666666665  L 2.22222222222223 2  Z M 17.7777777777778 8.16666666666665  L 17.7777777777778 6.06666666666667  L 18.8888888888889 6.06666666666667  L 18.8888888888889 3.26666666666666  L 17.7777777777778 3.26666666666666  L 17.7777777777778 1.16666666666667  C 17.7777777777778 1.09861111111111  17.7517361111111 1.04270833333333  17.6996527777778 0.998958333333325  C 17.6475694444445 0.955208333333341  17.5810185185185 0.933333333333337  17.5 1  L 1.38888888888891 1  C 1.30787037037038 0.933333333333337  1.24131944444446 0.955208333333341  1.18923611111109 0.998958333333325  C 1.13715277777777 1.04270833333333  1.11111111111109 1.09861111111111  1.11111111111109 1.16666666666667  L 1.11111111111109 8.16666666666665  C 1.11111111111109 8.23472222222222  1.13715277777777 8.29062499999999  1.18923611111109 8.334375  C 1.24131944444446 8.37812499999998  1.30787037037038 8.39999999999999  1.38888888888891 8.39999999999999  L 17.5 8.39999999999999  C 17.5810185185185 8.39999999999999  17.6475694444445 8.37812499999998  17.6996527777778 8.334375  C 17.7517361111111 8.29062499999999  17.7777777777778 8.23472222222222  17.7777777777778 8.16666666666665  Z M 19.6744791666667 2.60677083333332  C 19.8914930555555 2.78906249999999  20 3.00902777777776  20 3.26666666666666  L 20 6.06666666666667  C 20 6.32430555555556  19.8914930555555 6.54427083333334  19.6744791666667 6.72656249999998  C 19.4574652777778 6.90885416666665  19.1956018518518 6.99999999999998  18.8888888888889 6.99999999999998  L 18.8888888888889 8.16666666666665  C 18.8888888888889 8.4875  18.7528935185185 8.76215277777777  18.4809027777778 8.99062499999999  C 18.2089120370371 9.21909722222222  17.8819444444445 9.33333333333332  17.5 9.33333333333332  L 1.38888888888891 9.33333333333332  C 1.00694444444446 9.33333333333332  0.679976851851848 9.21909722222222  0.407986111111086 8.99062499999999  C 0.135995370370381 8.76215277777777  0 8.4875  0 8.16666666666665  L 0 1.16666666666667  C 0 0.845833333333322  0.135995370370381 0.571180555555557  0.407986111111086 0.34270833333333  C 0.679976851851848 0.114236111111102  1.00694444444446 0  1.38888888888891 0  L 17.5 0  C 17.8819444444445 0  18.2089120370371 0.114236111111102  18.4809027777778 0.34270833333333  C 18.7528935185185 0.571180555555557  18.8888888888889 0.845833333333322  18.8888888888889 1.16666666666667  L 18.8888888888889 2.33333333333334  C 19.1956018518518 2.33333333333332  19.4574652777778 2.42447916666665  19.6744791666667 2.60677083333332  Z " fill-rule="nonzero" fill="#000000" stroke="none" transform="matrix(1 0 0 1 336 5 )" />
  </g>
</svg>