<?xml version="1.0" encoding="utf-8"?>
<svg version="1.1" xmlns:xlink="http://www.w3.org/1999/xlink" width="20px" height="13px" xmlns="http://www.w3.org/2000/svg">
  <g transform="matrix(1 0 0 1 -279 -3 )">
    <path d="M 3.44587053571428 9.57029079861113  C 3.52957589285711 9.64307725694446  3.57142857142856 9.73608217592593  3.57142857142856 9.84930555555554  L 3.57142857142856 12.1784722222222  C 3.57142857142856 12.2916956018519  3.52957589285711 12.3847005208333  3.44587053571428 12.4574869791667  C 3.36216517857144 12.5302734375  3.25520833333337 12.5666666666667  3.125 12.5666666666667  L 0.446428571428555 12.5666666666667  C 0.316220238095241 12.5666666666667  0.20926339285711 12.5302734375  0.125558035714278 12.4574869791667  C 0.0418526785714448 12.3847005208333  0 12.2916956018519  0 12.1784722222222  L 0 9.84930555555554  C 0 9.73608217592593  0.0418526785714448 9.64307725694446  0.125558035714278 9.57029079861113  C 0.20926339285711 9.49750434027779  0.316220238095241 9.46111111111113  0.446428571428555 9.46111111111113  L 3.125 9.46111111111113  C 3.25520833333337 9.46111111111113  3.36216517857144 9.49750434027779  3.44587053571428 9.57029079861113  Z M 8.80301339285711 8.01751302083333  C 8.88671875 8.09029947916667  8.92857142857144 8.18330439814814  8.92857142857144 8.2965277777778  L 8.92857142857144 12.1784722222222  C 8.92857142857144 12.2916956018519  8.88671875 12.3847005208333  8.80301339285711 12.4574869791667  C 8.71930803571428 12.5302734375  8.6123511904762 12.5666666666667  8.48214285714289 12.5666666666667  L 5.80357142857144 12.5666666666667  C 5.67336309523807 12.5666666666667  5.56640625 12.5302734375  5.48270089285711 12.4574869791667  C 5.39899553571428 12.3847005208333  5.35714285714289 12.2916956018519  5.35714285714289 12.1784722222222  L 5.35714285714289 8.2965277777778  C 5.35714285714289 8.18330439814814  5.39899553571428 8.09029947916667  5.48270089285711 8.01751302083333  C 5.56640625 7.9447265625  5.67336309523807 7.90833333333333  5.80357142857144 7.90833333333333  L 8.48214285714289 7.90833333333333  C 8.6123511904762 7.90833333333333  8.71930803571428 7.9447265625  8.80301339285711 8.01751302083333  Z M 13.25 4.80277777777777  C 13.3337053571429 4.8755642361111  14.2857142857143 5.0777488425926  14.2857142857143 5.19097222222223  L 14.2857142857143 12.1784722222222  C 14.2857142857143 12.2916956018519  14.2438616071429 12.3847005208333  14.16015625 12.4574869791667  C 14.0764508928571 12.5302734375  13.969494047619 12.5666666666667  13.8392857142857 12.5666666666667  L 11.1607142857143 12.5666666666667  C 11.030505952381 12.5666666666667  10.9235491071429 12.5302734375  10.83984375 12.4574869791667  C 10.7561383928571 12.3847005208333  10.7142857142857 12.2916956018519  10.7142857142857 12.1784722222222  L 10.7142857142857 5.19097222222223  C 10.7142857142857 5.0777488425926  10.7561383928571 4.9847439236111  10.83984375 4.91195746527777  C 10.9235491071429 4.83917100694444  11.030505952381 4.80277777777777  11.1607142857143 4.80277777777777  L 13.8392857142857 4.80277777777777  C 13.969494047619 4.80277777777777  13.1662946428571 4.72999131944444  13.25 4.80277777777777  Z M 19.5172991071429 0.253624131944449  C 19.6010044642857 0.326410590277782  19.6428571428571 0.419415509259265  19.6428571428571 0.532638888888885  L 19.6428571428571 12.1784722222222  C 19.6428571428571 12.2916956018519  19.6010044642857 12.3847005208333  19.5172991071429 12.4574869791667  C 19.43359375 12.5302734375  19.3266369047619 12.5666666666667  19.1964285714286 12.5666666666667  L 16.5178571428571 12.5666666666667  C 16.3876488095238 12.5666666666667  16.2806919642857 12.5302734375  16.1969866071429 12.4574869791667  C 16.11328125 12.3847005208333  16.0714285714286 12.2916956018519  16 12.1784722222222  L 16 0.532638888888885  C 16.0714285714286 0.419415509259265  16.11328125 0.326410590277782  16.1969866071429 0.253624131944449  C 16.2806919642857 0.180837673611115  16.3876488095238 0.144444444444449  16.5178571428571 0.144444444444449  L 19.1964285714286 0.144444444444449  C 19.3266369047619 0.144444444444449  19.43359375 0.180837673611115  19.5172991071429 0.253624131944449  Z " fill-rule="nonzero" fill="#000000" stroke="none" transform="matrix(1 0 0 1 279 3 )" />
  </g>
</svg>