<?xml version="1.0" encoding="utf-8"?>
<svg version="1.1" xmlns:xlink="http://www.w3.org/1999/xlink" width="90px" height="90px" xmlns="http://www.w3.org/2000/svg">
  <g transform="matrix(1 0 0 1 -10 -383 )">
    <path d="M 10 383  L 100 383  L 100 473  L 10 473  L 10 383  " fill-rule="nonzero" fill="#cccccc" stroke="none" />
    <path d="M 16 389  L 94 389  L 94 467  L 16 467  L 16 389  " fill-rule="nonzero" fill="#ffffff" stroke="none" />
    <path d="M 63.55 410  C 59.77 410  56.8 407.03  56.8 403.25  C 56.8 399.47  59.77 396.5  63.55 396.5  C 67.33 396.5  70.3 399.47  70.3 403.25  C 70.3 407.03  67.33 410  63.55 410  " fill-rule="nonzero" fill="#cccccc" stroke="none" />
    <path d="M 19 465  L 19 424.85  L 37.25 406.6  L 62.8 421.2  L 77.4 417.55  L 92 421.2  L 92 465  L 19 465  " fill-rule="nonzero" fill="#169bd5" stroke="none" />
  </g>
</svg>