<?xml version="1.0" encoding="utf-8"?>
<svg version="1.1" xmlns:xlink="http://www.w3.org/1999/xlink" width="90px" height="90px" xmlns="http://www.w3.org/2000/svg">
  <g transform="matrix(1 0 0 1 -110 -383 )">
    <path d="M 88.2102272727273 34.5170454545455  C 89.4034090909091 35.7102272727273  90 37.1590909090909  90 38.8636363636364  L 90 51.1363636363636  C 90 52.8409090909091  89.4034090909091 54.2897727272727  88.2102272727273 55.4829545454545  C 87.0170454545455 56.6761363636364  85.5681818181818 57.2727272727273  83.8636363636364 57  L 57 57  L 57 83.8636363636364  C 57.2727272727273 85.5681818181818  56.6761363636364 87.0170454545455  55.4829545454545 88.2102272727273  C 54.2897727272727 89.4034090909091  52.8409090909091 90  51.1363636363636 90  L 38.8636363636364 90  C 37.1590909090909 90  35.7102272727273 89.4034090909091  34.5170454545455 88.2102272727273  C 33.3238636363636 87.0170454545455  32.7272727272727 85.5681818181818  33 83.8636363636364  L 33 57  L 6.13636363636364 57  C 4.43181818181818 57.2727272727273  2.98295454545455 56.6761363636364  1.78977272727273 55.4829545454545  C 0.596590909090909 54.2897727272727  0 52.8409090909091  0 51.1363636363636  L 0 38.8636363636364  C 0 37.1590909090909  0.596590909090909 35.7102272727273  1.78977272727273 34.5170454545455  C 2.98295454545455 33.3238636363636  4.43181818181818 32.7272727272727  6.13636363636364 33  L 33 33  L 33 6.13636363636364  C 32.7272727272727 4.43181818181818  33.3238636363636 2.98295454545454  34.5170454545455 1.78977272727273  C 35.7102272727273 0.596590909090906  37.1590909090909 0  38.8636363636364 0  L 51.1363636363636 0  C 52.8409090909091 0  54.2897727272727 0.596590909090906  55.4829545454545 1.78977272727273  C 56.6761363636364 2.98295454545454  57.2727272727273 4.43181818181818  57 6.13636363636364  L 57 33  L 83.8636363636364 33  C 85.5681818181818 32.7272727272727  87.0170454545455 33.3238636363636  88.2102272727273 34.5170454545455  Z " fill-rule="nonzero" fill="#d7d7d7" stroke="none" transform="matrix(1 0 0 1 110 383 )" />
  </g>
</svg>