<?xml version="1.0" encoding="utf-8"?>
<svg version="1.1" xmlns:xlink="http://www.w3.org/1999/xlink" width="26px" height="30px" xmlns="http://www.w3.org/2000/svg">
  <g transform="matrix(1 0 0 1 -10 -26 )">
    <path d="M 25.2310267857143 13.55625  C 25.7436755952381 15.23125  26 17.3125  26 19.8  C 26 21.875  25.3857886904762 24.69375  24.1573660714286 28.25625  C 24.1283482142857 28.34375  24.0775669642857 28.49375  24.0050223214286 28.70625  C 23.9324776785714 28.91875  23.8671875 29.10625  23.8091517857143 29.26875  C 23.7511160714286 29.43125  23.6882440476191 29.56875  23.6205357142857 29.68125  C 23.5044642857143 29.89375  23.3690476190476 30  23.2142857142857 30  C 23.0691964285714 30  22.9555431547619 29.9375  22.8733258928571 29.8125  C 22.7911086309524 29.6875  22.75 29.53125  22.75 29.34375  C 22.75 29.23125  22.7620907738095 29.065625  22.7862723214286 28.846875  C 22.8104538690476 28.628125  22.8225446428571 28.48125  22.8225446428571 28.40625  C 22.8709077380952 27.55625  22.8950892857143 26.7875  22.8950892857143 26.1  C 22.8950892857143 24.8375  22.8104538690476 23.70625  22.6411830357143 22.70625  C 22.471912202381 21.70625  22.2373511904762 20.840625  21.9375 20.109375  C 21.6376488095238 19.378125  21.250744047619 18.746875  20.7767857142857 18.215625  C 20.3028273809524 17.684375  19.7925967261905 17.25  19.24609375 16.9125  C 18.6995907738095 16.575  18.0563616071429 16.309375  17.31640625 16.115625  C 16.5764508928571 15.921875  15.8316592261905 15.7875  15.08203125 15.7125  C 14.3324032738095 15.6375  13.483630952381 15.6  12.5357142857143 15.6  L 9.28571428571429 15.6  L 9.28571428571429 20.4  C 9.28571428571429 20.725  9.19382440476191 21.00625  9.01004464285714 21.24375  C 8.82626488095238 21.48125  8.60863095238095 21.6  8.35714285714286 21.6  C 8.10565476190476 21.6  7.88802083333333 21.48125  7.70424107142857 21.24375  L 0.275669642857143 11.64375  C 0.091889880952381 11.40625  0 11.125  0 10.8  C 0 10.475  0.091889880952381 10.19375  0.275669642857143 9.95625  L 7.70424107142857 0.356249999999999  C 7.88802083333333 0.118749999999999  8.10565476190476 0  8.35714285714286 0  C 8.60863095238095 0  8.82626488095238 0.118749999999999  9.01004464285714 0.356249999999999  C 9.19382440476191 0.593749999999996  9.28571428571429 0.874999999999997  9.28571428571429 1.2  L 9.28571428571429 6  L 12.5357142857143 6  C 19.4322916666667 6  23.6640625 8.51875  25.2310267857143 13.55625  Z " fill-rule="nonzero" fill="#00bfbf" stroke="none" transform="matrix(1 0 0 1 10 26 )" />
  </g>
</svg>