<?xml version="1.0" encoding="utf-8"?>
<svg version="1.1" xmlns:xlink="http://www.w3.org/1999/xlink" width="33px" height="30px" xmlns="http://www.w3.org/2000/svg">
  <g transform="matrix(1 0 0 1 -14 -76 )">
    <path d="M 13.4272959183673 27.43359375  C 13.4132653061224 27.51953125  13.4272959183673 27.625  13.469387755102 27.75  C 13.469387755102 27.8125  13.4764030612245 27.96875  13.4904336734694 28.21875  C 13.5044642857143 28.46875  13.5079719387755 28.67578125  13.5009566326531 28.83984375  C 13.4939413265306 29.00390625  13.4728954081633 29.1875  13.437818877551 29.390625  C 13.4027423469388 29.59375  13.3325892857143 29.74609375  13.2273596938776 29.84765625  C 13.1221301020408 29.94921875  12.9783163265306 30  12.7959183673469 30  L 6.06122448979592 30  C 4.39158163265306 30  2.96396683673469 29.33984375  1.77838010204082 28.01953125  C 0.592793367346939 26.69921875  0 25.109375  0 23.25  L 0 6.75  C 0 4.89062499999999  0.592793367346939 3.30078125  1.77838010204082 1.98046875  C 2.96396683673469 0.660156249999996  4.39158163265306 0  6.06122448979592 0  L 12.7959183673469 0  C 12.9783163265306 0  13.1361607142857 0.0742187499999958  13.2694515306122 0.222656250000001  C 13.4027423469388 0.371093749999999  13.469387755102 0.546874999999999  13.469387755102 0.750000000000001  C 13.469387755102 0.812499999999997  13.4764030612245 0.968749999999998  13.4904336734694 1.21875  C 13.5044642857143 1.46875  13.5079719387755 1.67578125  13.5009566326531 1.83984375  C 13.4939413265306 2.00390625  13.4728954081633 2.1875  13.437818877551 2.390625  C 13.4027423469388 2.59375  13.3325892857143 2.74609375  13.2273596938776 2.84765625  C 13.1221301020408 2.94921875  12.9783163265306 3  12.7959183673469 3  L 6.06122448979592 3  C 5.13520408163265 3  4.34247448979592 3.3671875  3.68303571428571 4.1015625  C 3.02359693877551 4.8359375  2.69387755102041 5.71875  3 6.75  L 3 23.25  C 2.69387755102041 24.28125  3.02359693877551 25.1640625  3.68303571428571 25.8984375  C 4.34247448979592 26.6328125  5.13520408163265 27  6.06122448979592 27  L 12.1224489795918 27  L 12.3539540816327 27  L 12.6275510204082 27  C 12.6275510204082 27  12.7082270408163 27.0078125  12.8695790816327 27.0234375  C 13.030931122449 27.0390625  13.1116071428571 27.0625  13.1116071428571 27.09375  C 13.1116071428571 27.125  13.1677295918367 27.16796875  13.2799744897959 27.22265625  C 13.3922193877551 27.27734375  13.4413265306122 27.34765625  13.4272959183673 27.43359375  Z M 32.6001275510204 13.9453125  C 32.8667091836735 14.2421875  33 14.59375  33 15  C 33 15.40625  32.8667091836735 15.7578125  32.6001275510204 16.0546875  L 21.1511479591837 28.8046875  C 20.8845663265306 29.1015625  20.5688775510204 29.25  20.2040816326531 29.25  C 19.8392857142857 29.25  19.5235969387755 29.1015625  19.2570153061224 28.8046875  C 18.9904336734694 28.5078125  18.8571428571429 28.15625  18.8571428571429 27.75  L 18.8571428571429 21  L 9.42857142857143 21  C 9.06377551020408 21  8.74808673469388 20.8515625  8.48150510204082 20.5546875  C 8.21492346938775 20.2578125  8.08163265306122 19.90625  8.08163265306122 19.5  L 8.08163265306122 10.5  C 8.08163265306122 10.09375  8.21492346938775 9.7421875  8.48150510204082 9.4453125  C 8.74808673469388 9.1484375  9.06377551020408 9  9.42857142857143 9  L 18.8571428571429 9  L 18.8571428571429 2.25  C 18.8571428571429 1.84375  18.9904336734694 1.4921875  19.2570153061224 1.1953125  C 19.5235969387755 0.898437499999999  19.8392857142857 0.750000000000001  20.2040816326531 0.750000000000001  C 20.5688775510204 0.750000000000001  20.8845663265306 0.898437499999999  21.1511479591837 1.1953125  L 32.6001275510204 13.9453125  Z " fill-rule="nonzero" fill="#555555" stroke="none" transform="matrix(1 0 0 1 14 76 )" />
  </g>
</svg>