<?xml version="1.0" encoding="utf-8"?>
<svg version="1.1" xmlns:xlink="http://www.w3.org/1999/xlink" width="30px" height="35px" xmlns="http://www.w3.org/2000/svg">
  <g transform="matrix(1 0 0 1 -8 -24 )">
    <path d="M 29.1127232142857 15.815625  C 29.7042410714286 17.7697916666667  30 20.1979166666667  30 23.1  C 30 25.5208333333333  29.2912946428571 28.809375  27.8738839285714 32.965625  C 27.8404017857143 33.0677083333333  27.7818080357143 33.2427083333333  27.6981026785714 33.490625  C 27.6143973214286 33.7385416666667  27.5390625 33.9572916666667  27.4720982142857 34.146875  C 27.4051339285714 34.3364583333333  27.3325892857143 34.496875  27.2544642857143 34.628125  C 27.1205357142857 34.8760416666667  26.9642857142857 35  26.7857142857143 35  C 26.6183035714286 35  26.4871651785714 34.9270833333333  26.3922991071429 34.78125  C 26.2974330357143 34.6354166666667  26.25 34.453125  26.25 34.234375  C 26.25 34.103125  26.2639508928571 33.9098958333333  26.2918526785714 33.6546875  C 26.3197544642857 33.3994791666667  26.3337053571429 33.228125  26.3337053571429 33.140625  C 26.3895089285714 32.1489583333333  26.4174107142857 31.2520833333333  26.4174107142857 30.45  C 26.4174107142857 28.9770833333333  26.3197544642857 27.6572916666667  26.1244419642857 26.490625  C 25.9291294642857 25.3239583333333  25.6584821428571 24.3140625  25.3125 23.4609375  C 24.9665178571429 22.6078125  24.5200892857143 21.8713541666667  23.9732142857143 21.2515625  C 23.4263392857143 20.6317708333333  22.8376116071429 20.125  22.20703125 19.73125  C 21.5764508928571 19.3375  20.8342633928571 19.0276041666667  19.98046875 18.8015625  C 19.1266741071429 18.5755208333333  18.2672991071429 18.41875  17.40234375 18.33125  C 16.5373883928571 18.24375  15.5580357142857 18.2  14.4642857142857 18.2  L 10.7142857142857 18.2  L 10.7142857142857 23.8  C 10.7142857142857 24.1791666666667  10.6082589285714 24.5072916666667  10.3962053571429 24.784375  C 10.1841517857143 25.0614583333333  9.93303571428572 25.2  9.64285714285714 25.2  C 9.35267857142857 25.2  9.1015625 25.0614583333333  8.88950892857143 24.784375  L 0.318080357142857 13.584375  C 0.106026785714286 13.3072916666667  0 12.9791666666667  0 12.6  C 0 12.2208333333333  0.106026785714286 11.8927083333333  0.318080357142857 11.615625  L 8.88950892857143 0.415624999999999  C 9.1015625 0.138541666666665  9.35267857142857 0  9.64285714285714 0  C 9.93303571428572 0  10.1841517857143 0.138541666666665  10.3962053571429 0.415624999999999  C 10.6082589285714 0.692708333333329  10.7142857142857 1.02083333333333  10.7142857142857 1.4  L 10.7142857142857 7  L 14.4642857142857 7  C 22.421875 7  27.3046875 9.93854166666667  29.1127232142857 15.815625  Z " fill-rule="nonzero" fill="#70b603" stroke="none" transform="matrix(1 0 0 1 8 24 )" />
  </g>
</svg>