<?xml version="1.0" encoding="utf-8"?>
<svg version="1.1" xmlns:xlink="http://www.w3.org/1999/xlink" width="30px" height="30px" xmlns="http://www.w3.org/2000/svg">
  <g transform="matrix(1 0 0 1 -320 -95 )">
    <path d="M 13.9910313901345 22.5  L 14.932735426009 22.5  L 16.8834080717489 20.0284090909091  L 14.3273542600897 16.7897727272727  L 12.3766816143498 19.2613636363636  L 12.3766816143498 20.4545454545455  L 13.9910313901345 20.4545454545455  L 13.9910313901345 22.5  Z M 22.3150224215247 7.86221590909091  C 22.5056053811659 7.62073863636363  22.5112107623318 7.38636363636363  22.3318385650224 7.15909090909091  C 22.152466367713 6.93181818181818  21.9674887892377 6.93892045454545  21.7769058295964 7.18039772727273  L 15.8912556053812 14.6377840909091  C 15.7006726457399 14.8792613636364  15.695067264574 15.1136363636364  15.8744394618834 15.3409090909091  C 16.0538116591928 15.5681818181818  16.2387892376682 15.5610795454545  16.4293721973094 15.3196022727273  L 22.3150224215247 7.86221590909091  Z M 23.3408071748879 19.1974431818182  C 23.5650224215247 19.3110795454545  23.677130044843 19.5170454545455  23.677130044843 19.8153409090909  L 23.677130044843 23.8636363636364  C 23.677130044843 25.5539772727273  23.2034753363229 26.9992897727273  22.2561659192825 28.1995738636364  C 21.3088565022422 29.3998579545455  20.1681614349776 30  18.8340807174888 30  L 4.84304932735426 30  C 3.50896860986547 30  2.3682735426009 29.3998579545455  1.42096412556054 28.1995738636364  C 0.473654708520179 26.9992897727273  0 25.5539772727273  0 23.8636363636364  L 0 6.13636363636364  C 0 4.44602272727272  0.473654708520179 3.00071022727273  1.42096412556054 1.80042613636364  C 2.3682735426009 0.600142045454543  3.50896860986547 0  4.84304932735426 0  L 18.8340807174888 0  C 19.5403587443946 0  20.1961883408072 0.177556818181817  20.8015695067265 0.532670454545453  C 20.969730941704 0.632102272727271  21.0706278026906 0.795454545454545  21.1042600896861 1.02272727272727  C 21.1378923766816 1.26420454545454  21.0874439461883 1.47017045454545  20.9529147982063 1.640625  L 20.1289237668161 2.68465909090909  C 19.9719730941704 2.88352272727273  19.792600896861 2.94034090909091  19.5908071748879 2.85511363636364  C 19.3329596412556 2.76988636363636  19.0807174887892 2.72727272727273  18.8340807174888 3  L 4.84304932735426 3  C 4.10313901345291 2.72727272727273  3.46973094170404 3.06107954545454  2.94282511210762 3.72869318181818  C 2.41591928251121 4.39630681818182  2.152466367713 5.19886363636364  2.152466367713 6.13636363636364  L 2.152466367713 23.8636363636364  C 2.152466367713 24.8011363636364  2.41591928251121 25.6036931818182  2.94282511210762 26.2713068181818  C 3.46973094170404 26.9389204545455  4.10313901345291 27.2727272727273  4.84304932735426 27  L 18.8340807174888 27  C 19.5739910313901 27.2727272727273  20.207399103139 26.9389204545455  20.7343049327354 26.2713068181818  C 21.2612107623318 25.6036931818182  21.52466367713 24.8011363636364  21.52466367713 23.8636363636364  L 21.52466367713 21.1789772727273  C 21.52466367713 20.9943181818182  21.5751121076233 20.8380681818182  21.6760089686099 20.7102272727273  L 22.7522421524664 19.3465909090909  C 22.9204035874439 19.1335227272727  23.1165919282511 19.0838068181818  23.3408071748879 19.1974431818182  Z M 10.762331838565 18.4090909090909  L 22.0627802690583 4.09090909090909  L 26.9058295964126 10.2272727272727  L 15.6053811659193 24.5454545454545  L 10.762331838565 24.5454545454545  L 10.762331838565 18.4090909090909  Z M 30 5.45454545454545  C 30 6.02272727272727  29.8430493273543 6.50568181818182  29.5291479820628 6.90340909090909  L 27.9820627802691 8.86363636363636  L 23.1390134529148 2.72727272727273  L 24.6860986547085 0.767045454545453  C 25 0.369318181818179  25.3811659192825 0.170454545454547  25.8295964125561 0.170454545454547  C 26.2780269058296 0.170454545454547  26.6591928251121 0.369318181818179  26.9730941704036 0.767045454545453  L 29.5291479820628 4.00568181818182  C 29.8430493273543 4.40340909090909  30 4.88636363636363  30 5.45454545454545  Z " fill-rule="nonzero" fill="#8080ff" stroke="none" transform="matrix(1 0 0 1 320 95 )" />
  </g>
</svg>