<?xml version="1.0" encoding="utf-8"?>
<svg version="1.1" xmlns:xlink="http://www.w3.org/1999/xlink" width="30px" height="30px" xmlns="http://www.w3.org/2000/svg">
  <g transform="matrix(1 0 0 1 -8 -28 )">
    <path d="M 29.1127232142857 13.55625  C 29.7042410714286 15.23125  30 17.3125  30 19.8  C 30 21.875  29.2912946428571 24.69375  27.8738839285714 28.25625  C 27.8404017857143 28.34375  27.7818080357143 28.49375  27.6981026785714 28.70625  C 27.6143973214286 28.91875  27.5390625 29.10625  27.4720982142857 29.26875  C 27.4051339285714 29.43125  27.3325892857143 29.56875  27.2544642857143 29.68125  C 27.1205357142857 29.89375  26.9642857142857 30  26.7857142857143 30  C 26.6183035714286 30  26.4871651785714 29.9375  26.3922991071429 29.8125  C 26.2974330357143 29.6875  26.25 29.53125  26.25 29.34375  C 26.25 29.23125  26.2639508928571 29.065625  26.2918526785714 28.846875  C 26.3197544642857 28.628125  26.3337053571429 28.48125  26.3337053571429 28.40625  C 26.3895089285714 27.55625  26.4174107142857 26.7875  26.4174107142857 26.1  C 26.4174107142857 24.8375  26.3197544642857 23.70625  26.1244419642857 22.70625  C 25.9291294642857 21.70625  25.6584821428571 20.840625  25.3125 20.109375  C 24.9665178571429 19.378125  24.5200892857143 18.746875  23.9732142857143 18.215625  C 23.4263392857143 17.684375  22.8376116071429 17.25  22.20703125 16.9125  C 21.5764508928571 16.575  20.8342633928571 16.309375  19.98046875 16.115625  C 19.1266741071429 15.921875  18.2672991071429 15.7875  17.40234375 15.7125  C 16.5373883928571 15.6375  15.5580357142857 15.6  14.4642857142857 15.6  L 10.7142857142857 15.6  L 10.7142857142857 20.4  C 10.7142857142857 20.725  10.6082589285714 21.00625  10.3962053571429 21.24375  C 10.1841517857143 21.48125  9.93303571428572 21.6  9.64285714285714 21.6  C 9.35267857142857 21.6  9.1015625 21.48125  8.88950892857143 21.24375  L 0.318080357142857 11.64375  C 0.106026785714286 11.40625  0 11.125  0 10.8  C 0 10.475  0.106026785714286 10.19375  0.318080357142857 9.95625  L 8.88950892857143 0.356249999999999  C 9.1015625 0.118749999999999  9.35267857142857 0  9.64285714285714 0  C 9.93303571428572 0  10.1841517857143 0.118749999999999  10.3962053571429 0.356249999999999  C 10.6082589285714 0.593749999999996  10.7142857142857 0.874999999999997  10.7142857142857 1.2  L 10.7142857142857 6  L 14.4642857142857 6  C 22.421875 6  27.3046875 8.51875  29.1127232142857 13.55625  Z " fill-rule="nonzero" fill="#7f7f7f" stroke="none" transform="matrix(1 0 0 1 8 28 )" />
  </g>
</svg>