<?xml version="1.0" encoding="utf-8"?>
<svg version="1.1" xmlns:xlink="http://www.w3.org/1999/xlink" width="76px" height="76px" xmlns="http://www.w3.org/2000/svg">
  <g transform="matrix(1 0 0 1 -61 -273 )">
    <path d="M 61 273  L 137 273  L 137 349  L 61 349  L 61 273  " fill-rule="nonzero" fill="#cccccc" stroke="none" />
    <path d="M 66 278  L 132 278  L 132 344  L 66 344  L 66 278  " fill-rule="nonzero" fill="#ffffff" stroke="none" />
    <path d="M 106.22 295.8  C 103.028 295.8  100.52 293.292  100.52 290.1  C 100.52 286.908  103.028 284.4  106.22 284.4  C 109.412 284.4  111.92 286.908  111.92 290.1  C 111.92 293.292  109.412 295.8  106.22 295.8  " fill-rule="nonzero" fill="#cccccc" stroke="none" />
    <path d="M 68 342  L 68 307.9  L 83.5 292.4  L 105.2 304.8  L 117.6 301.7  L 130 304.8  L 130 342  L 68 342  " fill-rule="nonzero" fill="#169bd5" stroke="none" />
  </g>
</svg>