<?xml version="1.0" encoding="utf-8"?>
<svg version="1.1" xmlns:xlink="http://www.w3.org/1999/xlink" width="25px" height="25px" xmlns="http://www.w3.org/2000/svg">
  <g transform="matrix(1 0 0 1 -34 -625 )">
    <path d="M 34 625  L 59 625  L 59 650  L 34 650  L 34 625  " fill-rule="nonzero" fill="#cccccc" stroke="none" />
    <path d="M 36 627  L 57 627  L 57 648  L 36 648  L 36 627  " fill-rule="nonzero" fill="#ffffff" stroke="none" />
    <path d="M 48.875 632.5  C 47.825 632.5  47 631.675  47 630.625  C 47 629.575  47.825 628.75  48.875 628.75  C 49.925 628.75  50.75 629.575  50.75 630.625  C 50.75 631.675  49.925 632.5  48.875 632.5  " fill-rule="nonzero" fill="#cccccc" stroke="none" />
    <path d="M 37 648  L 37 637  L 42 632  L 49 636  L 53 635  L 57 636  L 57 648  L 37 648  " fill-rule="nonzero" fill="#169bd5" stroke="none" />
  </g>
</svg>