<?xml version="1.0" encoding="utf-8"?>
<svg version="1.1" xmlns:xlink="http://www.w3.org/1999/xlink" width="30px" height="30px" xmlns="http://www.w3.org/2000/svg">
  <g transform="matrix(1 0 0 1 -30 -437 )">
    <path d="M 15 28.6607142857143  C 15.1923076923077 28.6607142857143  15.2884615384615 28.5714285714286  15.2884615384615 28.3928571428571  C 15.2884615384615 28.2142857142857  15.1923076923077 28.125  15 28.125  C 14.2908653846154 28.125  13.6808894230769 27.8878348214286  13.1700721153846 27.4135044642857  C 12.6592548076923 26.9391741071429  12.4038461538462 26.3727678571429  12.4038461538462 25.7142857142857  C 12.4038461538462 25.5357142857143  12.3076923076923 25.4464285714286  12.1153846153846 25.4464285714286  C 11.9230769230769 25.4464285714286  11.8269230769231 25.5357142857143  11.8269230769231 25.7142857142857  C 11.8269230769231 26.5290178571429  12.1364182692308 27.2237723214286  12.7554086538462 27.7985491071429  C 13.3743990384615 28.3733258928571  14.1225961538462 28.6607142857143  15 28.6607142857143  Z M 28.359375 22.0982142857143  C 28.8521634615385 22.6116071428571  29.3990384615385 23.1026785714286  30 23.5714285714286  C 30 24.1517857142857  29.7716346153846 24.6540178571429  29.3149038461538 25.078125  C 28.8581730769231 25.5022321428571  28.3173076923077 25.7142857142857  27.6923076923077 25.7142857142857  L 19.6153846153846 25.7142857142857  C 19.6153846153846 26.8973214285714  19.1646634615385 27.9073660714286  18.2632211538462 28.7444196428571  C 17.3617788461538 29.5814732142857  16.2740384615385 30  15 30  C 13.7259615384615 30  12.6382211538462 29.5814732142857  11.7367788461538 28.7444196428571  C 10.8353365384615 27.9073660714286  10.3846153846154 26.8973214285714  10.3846153846154 25.7142857142857  L 2.30769230769231 25.7142857142857  C 1.68269230769231 25.7142857142857  1.14182692307692 25.5022321428571  0.685096153846154 25.078125  C 0.228365384615385 24.6540178571429  0 24.1517857142857  0 23.5714285714286  C 0.600961538461539 23.1026785714286  1.14783653846154 22.6116071428571  1.640625 22.0982142857143  C 2.13341346153846 21.5848214285714  2.64423076923077 20.91796875  3.17307692307692 20.09765625  C 3.70192307692308 19.27734375  4.14963942307692 18.3928571428571  4.51622596153846 17.4441964285714  C 4.8828125 16.4955357142857  5.18329326923077 15.3459821428571  5.41766826923077 13.9955357142857  C 5.65204326923077 12.6450892857143  5.76923076923077 11.1941964285714  5.76923076923077 9.64285714285714  C 5.76923076923077 7.94642857142857  6.47235576923077 6.36997767857143  7.87860576923077 4.91350446428571  C 9.28485576923077 3.45703125  11.1298076923077 2.57254464285714  13.4134615384615 2.26004464285714  C 13.3173076923077 2.04799107142857  13.2692307692308 1.83035714285714  13.2692307692308 1.60714285714286  C 13.2692307692308 1.16071428571428  13.4375 0.781249999999999  13.7740384615385 0.46875  C 14.1105769230769 0.156250000000001  14.5192307692308 0  15 0  C 15.4807692307692 0  15.8894230769231 0.156250000000001  16.2259615384615 0.46875  C 16.5625 0.781249999999999  16.7307692307692 1.16071428571428  16.7307692307692 1.60714285714286  C 16.7307692307692 1.83035714285714  16.6826923076923 2.04799107142857  16.5865384615385 2.26004464285714  C 18.8701923076923 2.57254464285714  20.7151442307692 3.45703125  22.1213942307692 4.91350446428571  C 23.5276442307692 6.36997767857143  24.2307692307692 7.94642857142857  24.2307692307692 9.64285714285714  C 24.2307692307692 11.1941964285714  24.3479567307692 12.6450892857143  24.5823317307692 13.9955357142857  C 24.8167067307692 15.3459821428571  25.1171875 16.4955357142857  25.4837740384615 17.4441964285714  C 25.8503605769231 18.3928571428571  26.2980769230769 19.27734375  26.8269230769231 20.09765625  C 27.3557692307692 20.91796875  27.8665865384615 21.5848214285714  28.359375 22.0982142857143  Z " fill-rule="nonzero" fill="#facd91" stroke="none" transform="matrix(1 0 0 1 30 437 )" />
  </g>
</svg>