<?xml version="1.0" encoding="utf-8"?>
<svg version="1.1" xmlns:xlink="http://www.w3.org/1999/xlink" width="32px" height="40px" xmlns="http://www.w3.org/2000/svg">
  <g transform="matrix(1 0 0 1 -38 -205 )">
    <path d="M 21.65625 18.046875  C 23.21875 16.7447916666667  24 15.1736111111111  24 13.3333333333333  C 24 11.4930555555556  23.21875 9.921875  21.65625 8.61979166666666  C 20.09375 7.31770833333333  18.2083333333333 6.66666666666667  16 6.66666666666667  C 13.7916666666667 6.66666666666667  11.90625 7.31770833333333  10.34375 8.61979166666666  C 8.78125 9.921875  8 11.4930555555556  8 13.3333333333333  C 8 15.1736111111111  8.78125 16.7447916666667  10.34375 18.046875  C 11.90625 19.3489583333333  13.7916666666667 20  16 20  C 18.2083333333333 20  20.09375 19.3489583333333  21.65625 18.046875  Z M 27.3125 3.90625  C 30.4375 6.51041666666667  32 9.65277777777777  32 13.3333333333333  C 32 15.2256944444444  31.65625 16.7795138888889  30.96875 17.9947916666667  L 19.59375 38.1510416666667  C 19.2604166666667 38.7239583333333  18.765625 39.1753472222222  18.109375 39.5052083333333  C 17.453125 39.8350694444444  16.75 40  16 40  C 15.25 40  14.546875 39.8350694444444  13.890625 39.5052083333333  C 13.234375 39.1753472222222  12.75 38.7239583333333  12.4375 38.1510416666667  L 1.03125 17.9947916666667  C 0.34375 16.7795138888889  0 15.2256944444444  0 13.3333333333333  C 0 9.65277777777777  1.5625 6.51041666666667  4.6875 3.90625  C 7.8125 1.30208333333333  11.5833333333333 0  16 0  C 20.4166666666667 0  24.1875 1.30208333333333  27.3125 3.90625  Z " fill-rule="nonzero" fill="#7f7f7f" stroke="none" transform="matrix(1 0 0 1 38 205 )" />
  </g>
</svg>