<?xml version="1.0" encoding="utf-8"?>
<svg version="1.1" xmlns:xlink="http://www.w3.org/1999/xlink" width="20px" height="15px" xmlns="http://www.w3.org/2000/svg">
  <g transform="matrix(1 0 0 1 -308 -5 )">
    <path d="M 10.9470468431772 13.6412903225807  C 10.4514596062457 14.1470967741936  10.1357773251867 14.4  10 14.4  C 9.86422267481333 14.4  9.54854039375425 14.1470967741936  9.05295315682281 13.6412903225807  C 8.55736591989137 13.1354838709677  8.30957230142565 12.8137634408602  8.30957230142565 12.6761290322581  C 8.30957230142565 12.4559139784946  8.52172437202989 12.2701075268817  8.94602851323828 12.1187096774194  C 9.37033265444671 11.967311827957  9.72165648336727 11.8916129032258  10 11.8916129032258  C 10.2783435166327 11.8916129032258  10.6296673455533 11.967311827957  11.0539714867617 12.1187096774194  C 11.4782756279701 12.2701075268817  11.6904276985744 12.4559139784946  11.6904276985744 12.6761290322581  C 11.6904276985744 12.8137634408602  11.4426340801086 13.1354838709677  10.9470468431772 13.6412903225807  Z M 13.7016293279023 10.8283870967742  C 13.1890699253225 11.3445161290323  12.8716904276986 11.6025806451613  12.7494908350305 11.6025806451613  C 12.7359131025119 11.6025806451613  12.6001357773252 11.516559139785  12.3421588594705 11.3445161290323  C 12.0841819416157 11.1724731182796  11.7396469789545 11.0004301075269  11.3085539714868 10.8283870967742  C 10.877460964019 10.6563440860215  10.4412763068568 10.5703225806452  10 10.5703225806452  C 9.55872369314324 10.5703225806452  9.12253903598099 10.6563440860215  8.69144602851321 10.8283870967742  C 8.26035302104549 11.0004301075269  7.9175152749491 11.1724731182796  7.66293279022403 11.3445161290323  C 7.40835030549897 11.516559139785  7.27087576374743 11.6025806451613  7.25050916496946 11.6025806451613  C 7.12830957230142 11.6025806451613  6.81093007467751 11.3445161290323  6.29837067209775 10.8283870967742  C 5.78581126951798 10.3122580645161  5.52953156822809 9.99225806451614  5.52953156822809 9.8683870967742  C 5.52953156822809 9.7789247311828  5.5634758995248 9.69978494623655  5.63136456211811 9.63096774193548  C 6.16089613034626 9.1010752688172  6.82620502376102 8.6847311827957  7.6272912423625 8.38193548387096  C 8.42837746096404 8.07913978494625  9.21928038017649 7.92774193548388  10 7.92774193548388  C 10.7807196198235 7.92774193548388  11.571622539036 8.07913978494625  12.3727087576375 8.38193548387096  C 13.173794976239 8.6847311827957  13.8391038696537 9.1010752688172  14.3686354378819 9.63096774193548  C 14.4365241004752 9.69978494623655  14.4704684317719 9.7789247311828  14.4704684317719 9.8683870967742  C 14.4704684317719 9.99225806451614  14.214188730482 10.3122580645161  13.7016293279023 10.8283870967742  Z M 16.4663951120163 8.02064516129033  C 15.9572301425662 8.53677419354838  15.6449422946368 8.79483870967744  15.5295315682281 8.79483870967744  C 15.4548540393754 8.79483870967744  15.3767820773931 8.767311827957  15.2953156822811 8.71225806451613  C 14.3720298710115 7.98967741935485  13.5166327223354 7.45806451612904  12.7291242362526 7.11741935483872  C 11.9416157501697 6.77677419354839  11.0319076714189 6.60645161290324  10 6.60645161290324  C 9.42294636795657 6.60645161290324  8.84419551934826 6.68215053763441  8.26374745417513 6.83354838709678  C 7.68329938900206 6.98494623655915  7.17752885268158 7.16731182795698  6.74643584521385 7.38064516129032  C 6.31534283774607 7.59397849462365  5.93007467752886 7.80731182795699  5.59063136456211 8.02064516129033  C 5.25118805159536 8.23397849462367  4.98302783435167 8.4163440860215  4.78615071283093 8.56774193548387  C 4.58927359131025 8.71913978494624  4.48404616429059 8.79483870967744  4.47046843177191 8.79483870967744  C 4.35505770536321 8.79483870967744  4.04276985743383 8.53677419354838  3.5336048879837 8.02064516129033  C 3.02443991853363 7.50451612903225  2.76985743380857 7.18451612903226  2.76985743380857 7.06064516129032  C 2.76985743380857 6.97806451612902  2.80380176510522 6.90236559139785  2.87169042769858 6.83354838709678  C 3.76782077393074 5.92516129032258  4.85403937542429 5.21978494623656  6.13034623217925 4.71741935483871  C 7.40665308893415 4.21505376344086  8.69653767820773 3.96387096774194  10 3.96387096774194  C 11.3034623217923 3.96387096774194  12.5933469110659 4.21505376344086  13.8696537678208 4.71741935483871  C 15.1459606245757 5.21978494623656  16.2321792260693 5.92516129032258  17.1283095723014 6.83354838709678  C 17.1961982348948 6.90236559139785  17.2301425661914 6.97806451612902  17.2301425661914 7.06064516129032  C 17.2301425661914 7.18451612903226  16.9755600814664 7.50451612903225  16.4663951120163 8.02064516129033  Z M 19.2311608961303 5.22322580645161  C 18.7186014935506 5.73935483870969  18.4046164290563 5.99741935483871  18.2892057026477 5.99741935483871  C 18.214528173795 5.99741935483871  18.1398506449423 5.96645161290323  18.0651731160896 5.90451612903226  C 16.8499660556687 4.82408602150538  15.5889341479973 4.01032258064517  14.2820773930754 3.46322580645162  C 12.9752206381534 2.91612903225807  11.5478615071283 2.64258064516129  10 2.64258064516129  C 8.45213849287171 2.64258064516129  7.02477936184658 2.91612903225807  5.71792260692462 3.46322580645162  C 4.41106585200271 4.01032258064517  3.15003394433131 4.82408602150538  1.93482688391038 5.90451612903226  C 1.86014935505773 5.96645161290323  1.78547182620503 5.99741935483871  1.71079429735232 5.99741935483871  C 1.59538357094362 5.99741935483871  1.28139850644942 5.73935483870969  0.768839103869652 5.22322580645161  C 0.256279701289884 4.70709677419354  0 4.38709677419355  0 4.26322580645162  C 0 4.17376344086021  0.0339443312966523 4.09462365591398  0.101832993890014 4.02580645161291  C 1.37135098438563 2.74580645161291  2.88187372708757 1.75483870967741  4.63340122199594 1.05290322580645  C 6.38492871690426 0.350967741935477  8.17379497623898 0  10 0  C 11.826205023761 0  13.6150712830957 0.350967741935477  15.3665987780041 1.05290322580645  C 17.1181262729124 1.75483870967741  18.6286490156144 2.74580645161291  19.89816700611 4.02580645161291  C 19.9660556687033 4.09462365591398  20 4.17376344086021  20 4.26322580645162  C 20 4.38709677419355  19.7437202987101 4.70709677419354  19.2311608961303 5.22322580645161  Z " fill-rule="nonzero" fill="#000000" stroke="none" transform="matrix(1 0 0 1 308 5 )" />
  </g>
</svg>