<?xml version="1.0" encoding="utf-8"?>
<svg version="1.1" xmlns:xlink="http://www.w3.org/1999/xlink" width="20px" height="12px" xmlns="http://www.w3.org/2000/svg">
  <g transform="matrix(1 0 0 1 -336 -6 )">
    <path d="M 2.22222222222223 2.24000000000001  L 16.6666666666667 2.24000000000001  L 16.6666666666667 9  L 2.22222222222223 9  L 2.22222222222223 2.24000000000001  Z M 17.7777777777778 9.79999999999998  L 17.7777777777778 7.28  L 18.8888888888889 7.28  L 18.8888888888889 3.91999999999999  L 17.7777777777778 3.91999999999999  L 17.7777777777778 1.40000000000001  C 17.7777777777778 1.31833333333333  17.7517361111111 1.25125  17.6996527777778 1.19874999999999  C 17.6475694444445 1.14625000000001  17.5810185185185 1.12  17.5 1.12  L 1.38888888888891 1.12  C 1.30787037037038 1.12  1.24131944444446 1.14625000000001  1.18923611111109 1.19874999999999  C 1.13715277777777 1.25125  1.11111111111109 1.31833333333333  1.11111111111109 1.40000000000001  L 1.11111111111109 9.79999999999998  C 1.11111111111109 9.88166666666666  1.13715277777777 9.94874999999999  1.18923611111109 10.00125  C 1.24131944444446 10.05375  1.30787037037038 10.08  1.38888888888891 10  L 17.5 10  C 17.5810185185185 10.08  17.6475694444445 10.05375  17.6996527777778 10.00125  C 17.7517361111111 9.94874999999999  17.7777777777778 9.88166666666666  17.7777777777778 9.79999999999998  Z M 19.6744791666667 3.12812499999998  C 19.8914930555555 3.34687499999998  20 3.61083333333332  20 3.91999999999999  L 20 7.28  C 20 7.58916666666667  19.8914930555555 7.85312500000001  19.6744791666667 8.07187499999998  C 19.4574652777778 8.29062499999998  19.1956018518518 8.39999999999998  18.8888888888889 8.39999999999998  L 18.8888888888889 9.79999999999998  C 18.8888888888889 10.185  18.7528935185185 10.5145833333333  18.4809027777778 10.78875  C 18.2089120370371 11.0629166666667  17.8819444444445 11.2  17.5 11  L 1.38888888888891 11  C 1.00694444444446 11.2  0.679976851851848 11.0629166666667  0.407986111111086 10.78875  C 0.135995370370381 10.5145833333333  0 10.185  0 9.79999999999998  L 0 1.40000000000001  C 0 1.01499999999999  0.135995370370381 0.685416666666669  0.407986111111086 0.411249999999995  C 0.679976851851848 0.137083333333322  1.00694444444446 0  1.38888888888891 0  L 17.5 0  C 17.8819444444445 0  18.2089120370371 0.137083333333322  18.4809027777778 0.411249999999995  C 18.7528935185185 0.685416666666669  18.8888888888889 1.01499999999999  18.8888888888889 1.40000000000001  L 18.8888888888889 2.80000000000001  C 19.1956018518518 2.79999999999998  19.4574652777778 2.90937499999998  19.6744791666667 3.12812499999998  Z " fill-rule="nonzero" fill="#000000" stroke="none" transform="matrix(1 0 0 1 336 6 )" />
  </g>
</svg>