<?xml version="1.0" encoding="utf-8"?>
<svg version="1.1" xmlns:xlink="http://www.w3.org/1999/xlink" width="20px" height="15px" xmlns="http://www.w3.org/2000/svg">
  <g transform="matrix(1 0 0 1 -279 -4 )">
    <path d="M 3.44587053571428 11.0426432291667  C 3.52957589285711 11.1266276041667  3.57142857142856 11.2339409722222  3.57142857142856 11.3645833333333  L 3.57142857142856 14.0520833333333  C 3.57142857142856 14.1827256944445  3.52957589285711 14.2900390625  3.44587053571428 14.3740234375  C 3.36216517857144 14.4580078125  3.25520833333337 14.5  3.125 14.5  L 0.446428571428555 14.5  C 0.316220238095241 14.5  0.20926339285711 14.4580078125  0.125558035714278 14.3740234375  C 0.0418526785714448 14.2900390625  0 14.1827256944445  0 14.0520833333333  L 0 11.3645833333333  C 0 11.2339409722222  0.0418526785714448 11.1266276041667  0.125558035714278 11.0426432291667  C 0.20926339285711 10.9586588541667  0.316220238095241 10.9166666666667  0.446428571428555 10.9166666666667  L 3.125 10.9166666666667  C 3.25520833333337 10.9166666666667  3.36216517857144 10.9586588541667  3.44587053571428 11.0426432291667  Z M 8.80301339285711 9.2509765625  C 8.88671875 9.3349609375  8.92857142857144 9.44227430555554  8.92857142857144 9.57291666666669  L 8.92857142857144 14.0520833333333  C 8.92857142857144 14.1827256944445  8.88671875 14.2900390625  8.80301339285711 14.3740234375  C 8.71930803571428 14.4580078125  8.6123511904762 14.5  8.48214285714289 14.5  L 5.80357142857144 14.5  C 5.67336309523807 14.5  5.56640625 14.4580078125  5.48270089285711 14.3740234375  C 5.39899553571428 14.2900390625  5.35714285714289 14.1827256944445  5.35714285714289 14.0520833333333  L 5.35714285714289 9.57291666666669  C 5.35714285714289 9.44227430555554  5.39899553571428 9.3349609375  5.48270089285711 9.2509765625  C 5.56640625 9.1669921875  5.67336309523807 9.125  5.80357142857144 9.125  L 8.48214285714289 9.125  C 8.6123511904762 9.125  8.71930803571428 9.1669921875  8.80301339285711 9.2509765625  Z M 13.25 5.54166666666666  C 13.3337053571429 5.62565104166666  14.2857142857143 5.85894097222223  14.2857142857143 5.98958333333334  L 14.2857142857143 14.0520833333333  C 14.2857142857143 14.1827256944445  14.2438616071429 14.2900390625  14.16015625 14.3740234375  C 14.0764508928571 14.4580078125  13.969494047619 14.5  13.8392857142857 14.5  L 11.1607142857143 14.5  C 11.030505952381 14.5  10.9235491071429 14.4580078125  10.83984375 14.3740234375  C 10.7561383928571 14.2900390625  10.7142857142857 14.1827256944445  10.7142857142857 14.0520833333333  L 10.7142857142857 5.98958333333334  C 10.7142857142857 5.85894097222223  10.7561383928571 5.75162760416666  10.83984375 5.66764322916666  C 10.9235491071429 5.58365885416666  11.030505952381 5.54166666666666  11.1607142857143 5.54166666666666  L 13.8392857142857 5.54166666666666  C 13.969494047619 5.54166666666666  13.1662946428571 5.45768229166666  13.25 5.54166666666666  Z M 19.5172991071429 0.292643229166671  C 19.6010044642857 0.376627604166671  19.6428571428571 0.483940972222229  19.6428571428571 0.614583333333329  L 19.6428571428571 14.0520833333333  C 19.6428571428571 14.1827256944445  19.6010044642857 14.2900390625  19.5172991071429 14.3740234375  C 19.43359375 14.4580078125  19.3266369047619 14.5  19.1964285714286 14.5  L 16.5178571428571 14.5  C 16.3876488095238 14.5  16.2806919642857 14.4580078125  16.1969866071429 14.3740234375  C 16.11328125 14.2900390625  16.0714285714286 14.1827256944445  16 14.0520833333333  L 16 0.614583333333329  C 16.0714285714286 0.483940972222229  16.11328125 0.376627604166671  16.1969866071429 0.292643229166671  C 16.2806919642857 0.208658854166671  16.3876488095238 0.166666666666671  16.5178571428571 0.166666666666671  L 19.1964285714286 0.166666666666671  C 19.3266369047619 0.166666666666671  19.43359375 0.208658854166671  19.5172991071429 0.292643229166671  Z " fill-rule="nonzero" fill="#000000" stroke="none" transform="matrix(1 0 0 1 279 4 )" />
  </g>
</svg>