<?xml version="1.0" encoding="utf-8"?>
<svg version="1.1" xmlns:xlink="http://www.w3.org/1999/xlink" width="99px" height="100px" xmlns="http://www.w3.org/2000/svg">
  <g transform="matrix(1 0 0 1 -14 -10 )">
    <path d="M 14 10  L 113 10  L 113 110  L 14 110  L 14 10  " fill-rule="nonzero" fill="#cccccc" stroke="none" />
    <path d="M 21 17  L 106 17  L 106 103  L 21 103  L 21 17  " fill-rule="nonzero" fill="#ffffff" stroke="none" />
    <path d="M 72.905 39.85  C 68.747 39.85  65.48 36.583  65.48 32.425  C 65.48 28.267  68.747 25  72.905 25  C 77.063 25  80.33 28.267  80.33 32.425  C 80.33 36.583  77.063 39.85  72.905 39.85  " fill-rule="nonzero" fill="#cccccc" stroke="none" />
    <path d="M 24 101  L 24 56.45  L 44 36.2  L 72 52.4  L 88 48.35  L 104 52.4  L 104 101  L 24 101  " fill-rule="nonzero" fill="#169bd5" stroke="none" />
  </g>
</svg>