<?xml version="1.0" encoding="utf-8"?>
<svg version="1.1" xmlns:xlink="http://www.w3.org/1999/xlink" width="16px" height="16px" xmlns="http://www.w3.org/2000/svg">
  <g transform="matrix(1 0 0 1 -19 -287 )">
    <path d="M 10.828125 7.21875  C 11.609375 6.69791666666667  12 6.06944444444444  12 5.33333333333333  C 12 4.59722222222222  11.609375 3.96875  10.828125 3.44791666666667  C 10.046875 2.92708333333333  9.10416666666667 2.66666666666667  8 2.66666666666667  C 6.89583333333333 2.66666666666667  5.953125 2.92708333333333  5.171875 3.44791666666667  C 4.390625 3.96875  4 4.59722222222222  4 5.33333333333333  C 4 6.06944444444444  4.390625 6.69791666666667  5.171875 7.21875  C 5.953125 7.73958333333333  6.89583333333333 8  8 8  C 9.10416666666667 8  10.046875 7.73958333333333  10.828125 7.21875  Z M 13.65625 1.5625  C 15.21875 2.60416666666667  16 3.86111111111111  16 5.33333333333333  C 16 6.09027777777778  15.828125 6.71180555555556  15.484375 7.19791666666667  L 9.796875 15.2604166666667  C 9.63020833333333 15.4895833333333  9.3828125 15.6701388888889  9.0546875 15.8020833333333  C 8.7265625 15.9340277777778  8.375 16  8 16  C 7.625 16  7.2734375 15.9340277777778  6.9453125 15.8020833333333  C 6.6171875 15.6701388888889  6.375 15.4895833333333  6.21875 15.2604166666667  L 0.515625 7.19791666666667  C 0.171875 6.71180555555556  0 6.09027777777778  0 5.33333333333333  C 0 3.86111111111111  0.78125 2.60416666666667  2.34375 1.5625  C 3.90625 0.520833333333334  5.79166666666667 0  8 0  C 10.2083333333333 0  12.09375 0.520833333333334  13.65625 1.5625  Z " fill-rule="nonzero" fill="#555555" stroke="none" transform="matrix(1 0 0 1 19 287 )" />
  </g>
</svg>