<?xml version="1.0" encoding="utf-8"?>
<svg version="1.1" xmlns:xlink="http://www.w3.org/1999/xlink" width="20px" height="20px" xmlns="http://www.w3.org/2000/svg">
  <g transform="matrix(1 0 0 1 -107 -35 )">
    <path d="M 19.140625 0.0668896321070234  C 19.3489583333333 -0.0297287253808998  19.5442708333333 -0.00743218134522383  19.7265625 0.133779264214047  C 19.9088541666667 0.282422891118543  20 0.479375696767002  20 0.724637681159421  L 20 16.4214046822742  C 20 16.5700483091787  19.9641927083333 16.7038275733928  19.892578125 16.8227424749164  C 19.8209635416667 16.94165737644  19.7265625 17.0271274619101  19.609375 17.0791527313266  L 13.359375 19.933110367893  C 13.203125 20.0148643626905  13.046875 20.0148643626905  12.890625 19.933110367893  L 6.875 17.190635451505  L 0.859375 19.933110367893  C 0.794270833333333 19.9702712746191  0.716145833333333 19.9888517279822  0.625 19.9888517279822  C 0.501302083333333 19.9888517279822  0.384114583333333 19.9479747305834  0.2734375 19.866220735786  C 0.0911458333333333 19.7175771088815  0 19.520624303233  0 19.2753623188406  L 0 3.57859531772575  C 0 3.42995169082125  0.0358072916666667 3.29617242660721  0.107421875 3.17725752508361  C 0.179036458333333 3.05834262356001  0.2734375 2.97287253808993  0.390625 2.92084726867336  L 6.640625 0.0668896321070234  C 6.796875 -0.0148643626904521  6.953125 -0.0148643626904521  7.109375 0.0668896321070234  L 13.125 2.80936454849498  L 19.140625 0.0668896321070234  Z M 12.8125 4.20289855072464  L 7.1875 1.63879598662207  L 7.1875 15.7971014492754  L 12.8125 18.3612040133779  L 12.8125 4.20289855072464  Z M 6.5625 1.63879598662207  L 1.25 4.05797101449275  L 1.25 18.216276477146  L 6.5625 15.7971014492754  L 6.5625 1.63879598662207  Z M 13.4375 18.3612040133779  L 18.75 15.9420289855072  L 18.75 1.78372352285396  L 13.4375 4.20289855072464  L 13.4375 18.3612040133779  Z " fill-rule="nonzero" fill="#000000" stroke="none" transform="matrix(1 0 0 1 107 35 )" />
  </g>
</svg>