<?xml version="1.0" encoding="utf-8"?>
<svg version="1.1" xmlns:xlink="http://www.w3.org/1999/xlink" width="27px" height="25px" xmlns="http://www.w3.org/2000/svg">
  <g transform="matrix(1 0 0 1 -21 -404 )">
    <path d="M 25.83984375 0.0836120401337792  C 26.12109375 -0.0371609067261247  26.384765625 -0.00929022668152979  26.630859375 0.167224080267558  C 26.876953125 0.353028613898179  27 0.599219620958752  27 0.905797101449277  L 27 20.5267558528428  C 27 20.7125603864734  26.95166015625 20.879784466741  26.85498046875 21.0284280936455  C 26.75830078125 21.17707172055  26.630859375 21.2839093273876  26.47265625 21.3489409141583  L 18.03515625 24.9163879598662  C 17.82421875 25.0185804533631  17.61328125 25.0185804533631  17.40234375 24.9163879598662  L 9.28125 21.4882943143813  L 1.16015625 24.9163879598662  C 1.072265625 24.9628390932739  0.966796875 24.9860646599777  0.84375 24.9860646599777  C 0.6767578125 24.9860646599777  0.5185546875 24.9349684132293  0.369140625 24.8327759197324  C 0.123046875 24.6469713861018  0 24.4007803790412  0 24.0942028985507  L 0 4.47324414715719  C 0 4.28743961352657  0.04833984375 4.12021553325901  0.14501953125 3.97157190635452  C 0.24169921875 3.82292827945002  0.369140625 3.71609067261241  0.52734375 3.6510590858417  L 8.96484375 0.0836120401337792  C 9.17578125 -0.0185804533630651  9.38671875 -0.0185804533630651  9.59765625 0.0836120401337792  L 17.71875 3.51170568561873  L 25.83984375 0.0836120401337792  Z M 17 5.2536231884058  L 10 2.04849498327759  L 10 19.7463768115942  L 17 22.9515050167224  L 17 5.2536231884058  Z M 9 2.04849498327759  L 2 5.07246376811594  L 2 22.7703455964326  L 9 19.7463768115942  L 9 2.04849498327759  Z M 18 22.9515050167224  L 25 19.9275362318841  L 25 2.22965440356745  L 18 5.2536231884058  L 18 22.9515050167224  Z " fill-rule="nonzero" fill="#7f7f7f" stroke="none" transform="matrix(1 0 0 1 21 404 )" />
  </g>
</svg>