<?xml version="1.0" encoding="utf-8"?>
<svg version="1.1" xmlns:xlink="http://www.w3.org/1999/xlink" width="30px" height="30px" xmlns="http://www.w3.org/2000/svg">
  <g transform="matrix(1 0 0 1 -18 -77 )">
    <path d="M 28.7109375 0.100334448160535  C 29.0234375 -0.0445930880713497  29.31640625 -0.0111482720178357  29.58984375 0.20066889632107  C 29.86328125 0.423634336677815  30 0.719063545150502  30 1.08695652173913  L 30 24.6321070234114  C 30 24.8550724637681  29.9462890625 25.0557413600892  29.8388671875 25.2341137123746  C 29.7314453125 25.41248606466  29.58984375 25.5406911928651  29.4140625 25.61872909699  L 20.0390625 29.8996655518395  C 19.8046875 30.0222965440357  19.5703125 30.0222965440357  19.3359375 29.8996655518395  L 10.3125 25.7859531772575  L 1.2890625 29.8996655518395  C 1.19140625 29.9554069119287  1.07421875 29.9832775919732  0.9375 29.9832775919732  C 0.751953125 29.9832775919732  0.576171875 29.9219620958751  0.41015625 29.7993311036789  C 0.13671875 29.5763656633222  0 29.2809364548495  0 28.9130434782609  L 0 5.36789297658863  C 0 5.14492753623188  0.0537109375 4.94425863991081  0.1611328125 4.76588628762542  C 0.2685546875 4.58751393534002  0.41015625 4.45930880713489  0.5859375 4.38127090301004  L 9.9609375 0.100334448160535  C 10.1953125 -0.0222965440356782  10.4296875 -0.0222965440356782  10.6640625 0.100334448160535  L 19.6875 4.21404682274248  L 28.7109375 0.100334448160535  Z M 19 6.30434782608696  L 11 2.45819397993311  L 11 23.695652173913  L 19 27.5418060200669  L 19 6.30434782608696  Z M 10 2.45819397993311  L 2 6.08695652173913  L 2 27.3244147157191  L 10 23.695652173913  L 10 2.45819397993311  Z M 20 27.5418060200669  L 28 23.9130434782609  L 28 2.67558528428094  L 20 6.30434782608696  L 20 27.5418060200669  Z " fill-rule="nonzero" fill="#7f7f7f" stroke="none" transform="matrix(1 0 0 1 18 77 )" />
  </g>
</svg>