<?xml version="1.0" encoding="utf-8"?>
<svg version="1.1" xmlns:xlink="http://www.w3.org/1999/xlink" width="25px" height="25px" xmlns="http://www.w3.org/2000/svg">
  <g transform="matrix(1 0 0 1 -34 -130 )">
    <path d="M 23.92578125 0.0836120401337792  C 24.1861979166667 -0.0371609067261247  24.4303385416667 -0.00929022668152979  24.658203125 0.167224080267558  C 24.8860677083333 0.353028613898179  25 0.599219620958752  25 0.905797101449277  L 25 20.5267558528428  C 25 20.7125603864734  24.9552408854167 20.879784466741  24.86572265625 21.0284280936455  C 24.7762044270833 21.17707172055  24.658203125 21.2839093273876  24.51171875 21.3489409141583  L 16.69921875 24.9163879598662  C 16.50390625 25.0185804533631  16.30859375 25.0185804533631  16.11328125 24.9163879598662  L 8.59375 21.4882943143813  L 1.07421875 24.9163879598662  C 0.992838541666667 24.9628390932739  0.895182291666667 24.9860646599777  0.78125 24.9860646599777  C 0.626627604166667 24.9860646599777  0.480143229166667 24.9349684132293  0.341796875 24.8327759197324  C 0.113932291666667 24.6469713861018  0 24.4007803790412  0 24.0942028985507  L 0 4.47324414715719  C 0 4.28743961352657  0.0447591145833333 4.12021553325901  0.13427734375 3.97157190635452  C 0.223795572916667 3.82292827945002  0.341796875 3.71609067261241  0.48828125 3.6510590858417  L 8.30078125 0.0836120401337792  C 8.49609375 -0.0185804533630651  8.69140625 -0.0185804533630651  8.88671875 0.0836120401337792  L 16.40625 3.51170568561873  L 23.92578125 0.0836120401337792  Z M 16 5.2536231884058  L 9 2.04849498327759  L 9 19.7463768115942  L 16 22.9515050167224  L 16 5.2536231884058  Z M 8.203125 2.04849498327759  L 2 5.07246376811594  L 2 22.7703455964326  L 8.203125 19.7463768115942  L 8.203125 2.04849498327759  Z M 16.796875 22.9515050167224  L 23 19.9275362318841  L 23 2.22965440356745  L 16.796875 5.2536231884058  L 16.796875 22.9515050167224  Z " fill-rule="nonzero" fill="#7f7f7f" stroke="none" transform="matrix(1 0 0 1 34 130 )" />
  </g>
</svg>