<?xml version="1.0" encoding="utf-8"?>
<svg version="1.1" xmlns:xlink="http://www.w3.org/1999/xlink" width="50px" height="50px" xmlns="http://www.w3.org/2000/svg">
  <g transform="matrix(1 0 0 1 -162 -82 )">
    <path d="M 41.0481770833333 28.5481770833333  C 41.4605034722222 28.1358506944444  41.6666666666667 27.6475694444444  41.6666666666667 27.0833333333333  L 41.6666666666667 22.9166666666667  C 41.6666666666667 22.3524305555556  41.4605034722222 21.8641493055556  41.0481770833333 21.4518229166667  C 40.6358506944445 21.0394965277778  40.1475694444445 20.8333333333333  39.5833333333333 21  L 23.2421875 21  L 29.39453125 14.6809895833333  C 29.8068576388889 14.2686631944444  30.0130208333333 13.7803819444444  30.0130208333333 13.2161458333333  C 30.0130208333333 12.6519097222222  29.8068576388889 12.1636284722222  29.39453125 11.7513020833333  L 26.4322916666667 8.7890625  C 26.0416666666667 8.3984375  25.5533854166667 8.203125  24.9674479166667 8.203125  C 24.3815104166667 8.203125  23.8932291666667 8.3984375  23.5026041666667 8.7890625  L 11.71875 20.5729166666667  L 8.75651041666667 23.53515625  C 8.36588541666667 23.92578125  8.17057291666667 24.4140625  8.17057291666667 25  C 8.17057291666667 25.5859375  8.36588541666667 26.07421875  8.75651041666667 26.46484375  L 11.71875 29.4270833333333  L 23.5026041666667 41.2109375  C 23.8932291666667 41.6015625  24.3815104166667 41.796875  24.9674479166667 41.796875  C 25.5533854166667 41.796875  26.0416666666667 41.6015625  26.4322916666667 41.2109375  L 29.39453125 38.2486979166667  C 29.78515625 37.8580729166667  29.98046875 37.3697916666667  29.98046875 36.7838541666667  C 29.98046875 36.1979166666667  29.78515625 35.7096354166667  29.39453125 35.3190104166667  L 23.2421875 29  L 39.5833333333333 29  C 40.1475694444445 29.1666666666667  40.6358506944445 28.9605034722222  41.0481770833333 28.5481770833333  Z M 46.6471354166667 12.451171875  C 48.8823784722222 16.2814670138889  50 20.4644097222222  50 25  C 50 29.5355902777778  48.8823784722222 33.7185329861111  46.6471354166667 37.548828125  C 44.4118923611111 41.3791232638889  41.3791232638889 44.4118923611111  37.548828125 46.6471354166667  C 33.7185329861111 48.8823784722222  29.5355902777778 50  25 50  C 20.4644097222222 50  16.2814670138889 48.8823784722222  12.451171875 46.6471354166667  C 8.62087673611111 44.4118923611111  5.58810763888889 41.3791232638889  3.35286458333333 37.548828125  C 1.11762152777778 33.7185329861111  0 29.5355902777778  0 25  C 0 20.4644097222222  1.11762152777778 16.2814670138889  3.35286458333333 12.451171875  C 5.58810763888889 8.62087673611111  8.62087673611111 5.58810763888888  12.451171875 3.35286458333333  C 16.2814670138889 1.11762152777777  20.4644097222222 0  25 0  C 29.5355902777778 0  33.7185329861111 1.11762152777777  37.548828125 3.35286458333333  C 41.3791232638889 5.58810763888888  44.4118923611111 8.62087673611111  46.6471354166667 12.451171875  Z " fill-rule="nonzero" fill="#8080ff" stroke="none" transform="matrix(1 0 0 1 162 82 )" />
  </g>
</svg>