<?xml version="1.0" encoding="utf-8"?>
<svg version="1.1" xmlns:xlink="http://www.w3.org/1999/xlink" width="30px" height="30px" xmlns="http://www.w3.org/2000/svg">
  <g transform="matrix(1 0 0 1 -121 -130 )">
    <path d="M 20.302734375 13.53515625  C 21.767578125 12.55859375  22.5 11.3802083333333  22.5 10  C 22.5 8.61979166666666  21.767578125 7.44140625  20.302734375 6.46484375  C 18.837890625 5.48828125  17.0703125 5  15 5  C 12.9296875 5  11.162109375 5.48828125  9.697265625 6.46484375  C 8.232421875 7.44140625  7.5 8.61979166666666  7.5 10  C 7.5 11.3802083333333  8.232421875 12.55859375  9.697265625 13.53515625  C 11.162109375 14.51171875  12.9296875 15  15 15  C 17.0703125 15  18.837890625 14.51171875  20.302734375 13.53515625  Z M 25.60546875 2.9296875  C 28.53515625 4.8828125  30 7.23958333333333  30 10  C 30 11.4192708333333  29.677734375 12.5846354166667  29.033203125 13.49609375  L 18.369140625 28.61328125  C 18.056640625 29.04296875  17.5927734375 29.3815104166667  16.9775390625 29.62890625  C 16.3623046875 29.8763020833333  15.703125 30  15 30  C 14.296875 30  13.6376953125 29.8763020833333  13.0224609375 29.62890625  C 12.4072265625 29.3815104166667  11.953125 29.04296875  11.66015625 28.61328125  L 0.966796875 13.49609375  C 0.322265625 12.5846354166667  0 11.4192708333333  0 10  C 0 7.23958333333333  1.46484375 4.8828125  4.39453125 2.9296875  C 7.32421875 0.976562500000001  10.859375 0  15 0  C 19.140625 0  22.67578125 0.976562500000001  25.60546875 2.9296875  Z " fill-rule="nonzero" fill="#aaaaaa" stroke="none" transform="matrix(1 0 0 1 121 130 )" />
  </g>
</svg>