<?xml version="1.0" encoding="utf-8"?>
<svg version="1.1" xmlns:xlink="http://www.w3.org/1999/xlink" width="62px" height="50px" xmlns="http://www.w3.org/2000/svg">
  <g transform="matrix(1 0 0 1 -104 -20 )">
    <path d="M 104 20  L 166 20  L 166 70  L 104 70  L 104 20  " fill-rule="nonzero" fill="#cccccc" stroke="none" />
    <path d="M 108 24  L 162 24  L 162 66  L 108 66  L 108 24  " fill-rule="nonzero" fill="#ffffff" stroke="none" />
    <path d="M 139.99 35  C 137.89 35  136.24 33.35  136.24 31.25  C 136.24 29.15  137.89 27.5  139.99 27.5  C 142.09 27.5  143.74 29.15  143.74 31.25  C 143.74 33.35  142.09 35  139.99 35  " fill-rule="nonzero" fill="#cccccc" stroke="none" />
    <path d="M 110 65  L 110 43.55  L 122.75 33.8  L 140.6 46.1290322580645  L 150.8 39.65  L 161 46.1290322580645  L 161 65  L 110 65  " fill-rule="nonzero" fill="#169bd5" stroke="none" />
  </g>
</svg>