<?xml version="1.0" encoding="utf-8"?>
<svg version="1.1" xmlns:xlink="http://www.w3.org/1999/xlink" width="62px" height="50px" xmlns="http://www.w3.org/2000/svg">
  <g transform="matrix(1 0 0 1 -271 -90 )">
    <path d="M 271 90  L 333 90  L 333 140  L 271 140  L 271 90  " fill-rule="nonzero" fill="#cccccc" stroke="none" />
    <path d="M 275 94  L 329 94  L 329 136  L 275 136  L 275 94  " fill-rule="nonzero" fill="#ffffff" stroke="none" />
    <path d="M 306.99 105  C 304.89 105  303.24 103.35  303.24 101.25  C 303.24 99.15  304.89 97.5  306.99 97.5  C 309.09 97.5  310.74 99.15  310.74 101.25  C 310.74 103.35  309.09 105  306.99 105  " fill-rule="nonzero" fill="#cccccc" stroke="none" />
    <path d="M 277 135  L 277 113.55  L 289.75 103.8  L 307.6 116.129032258065  L 317.8 109.65  L 328 116.129032258065  L 328 135  L 277 135  " fill-rule="nonzero" fill="#169bd5" stroke="none" />
  </g>
</svg>