<?xml version="1.0" encoding="utf-8"?>
<svg version="1.1" xmlns:xlink="http://www.w3.org/1999/xlink" width="75px" height="75px" xmlns="http://www.w3.org/2000/svg">
  <g transform="matrix(1 0 0 1 -16 -446 )">
    <path d="M 16 446  L 91 446  L 91 521  L 16 521  L 16 446  " fill-rule="nonzero" fill="#cccccc" stroke="none" />
    <path d="M 21 451  L 86 451  L 86 516  L 21 516  L 21 451  " fill-rule="nonzero" fill="#ffffff" stroke="none" />
    <path d="M 60.625 468.5  C 57.475 468.5  55 466.025  55 462.875  C 55 459.725  57.475 457.25  60.625 457.25  C 63.775 457.25  66.25 459.725  66.25 462.875  C 66.25 466.025  63.775 468.5  60.625 468.5  " fill-rule="nonzero" fill="#cccccc" stroke="none" />
    <path d="M 23 514  L 23 480.45  L 38.25 465.2  L 59.6 477.4  L 71.8 474.35  L 84 477.4  L 84 514  L 23 514  " fill-rule="nonzero" fill="#169bd5" stroke="none" />
  </g>
</svg>