<?xml version="1.0" encoding="utf-8"?>
<svg version="1.1" xmlns:xlink="http://www.w3.org/1999/xlink" width="40px" height="37px" xmlns="http://www.w3.org/2000/svg">
  <g transform="matrix(1 0 0 1 -10 -69 )">
    <path d="M 38.8169642857143 16.719375  C 39.6056547619048 18.7852083333333  40 21.3520833333333  40 24.42  C 40 26.9791666666667  39.0550595238095 30.455625  37.1651785714286 34.849375  C 37.1205357142857 34.9572916666667  37.0424107142857 35.1422916666667  36.9308035714286 35.404375  C 36.8191964285714 35.6664583333333  36.71875 35.8977083333333  36.6294642857143 36.098125  C 36.5401785714286 36.2985416666667  36.4434523809524 36.468125  36.3392857142857 36.606875  C 36.1607142857143 36.8689583333333  35.952380952381 37  35.7142857142857 37  C 35.4910714285714 37  35.3162202380952 36.9229166666667  35.1897321428571 36.76875  C 35.0632440476191 36.6145833333333  35 36.421875  35 36.190625  C 35 36.051875  35.0186011904762 35.8476041666667  35.0558035714286 35.5778125  C 35.093005952381 35.3080208333333  35.1116071428571 35.126875  35.1116071428571 35.034375  C 35.1860119047619 33.9860416666667  35.2232142857143 33.0379166666667  35.2232142857143 32.19  C 35.2232142857143 30.6329166666667  35.093005952381 29.2377083333333  34.8325892857143 28.004375  C 34.5721726190476 26.7710416666667  34.2113095238095 25.7034375  33.75 24.8015625  C 33.2886904761905 23.8996875  32.6934523809524 23.1211458333333  31.9642857142857 22.4659375  C 31.2351190476191 21.8107291666667  30.4501488095238 21.275  29.609375 20.85875  C 28.7686011904762 20.4425  27.7790178571429 20.1148958333333  26.640625 19.8759375  C 25.5022321428571 19.6369791666667  24.3563988095238 19.47125  23.203125 19.37875  C 22.0498511904762 19.28625  20.7440476190476 19.24  19.2857142857143 19.24  L 14.2857142857143 19.24  L 14.2857142857143 25.16  C 14.2857142857143 25.5608333333333  14.1443452380952 25.9077083333333  13.8616071428571 26.200625  C 13.578869047619 26.4935416666667  13.2440476190476 26.64  12.8571428571429 26.64  C 12.4702380952381 26.64  12.1354166666667 26.4935416666667  11.8526785714286 26.200625  L 0.424107142857143 14.360625  C 0.141369047619048 14.0677083333333  0 13.7208333333333  0 13.32  C 0 12.9191666666667  0.141369047619048 12.5722916666667  0.424107142857143 12.279375  L 11.8526785714286 0.439374999999999  C 12.1354166666667 0.146458333333332  12.4702380952381 0  12.8571428571429 0  C 13.2440476190476 0  13.578869047619 0.146458333333332  13.8616071428571 0.439374999999999  C 14.1443452380952 0.732291666666662  14.2857142857143 1.07916666666666  14.2857142857143 1.48  L 14.2857142857143 7.4  L 19.2857142857143 7.4  C 29.8958333333333 7.4  36.40625 10.5064583333333  38.8169642857143 16.719375  Z " fill-rule="nonzero" fill="#000000" stroke="none" transform="matrix(1 0 0 1 10 69 )" />
  </g>
</svg>