<?xml version="1.0" encoding="utf-8"?>
<svg version="1.1" xmlns:xlink="http://www.w3.org/1999/xlink" width="40px" height="40px" xmlns="http://www.w3.org/2000/svg">
  <g transform="matrix(1 0 0 1 -13 -150 )">
    <path d="M 38.28125 0.133779264214047  C 38.6979166666667 -0.0594574507617995  39.0885416666667 -0.0148643626904477  39.453125 0.267558528428093  C 39.8177083333333 0.564845782237087  40 0.958751393534003  40 1.44927536231884  L 40 32.8428093645485  C 40 33.1400966183575  39.9283854166667 33.4076551467856  39.78515625 33.6454849498328  C 39.6419270833333 33.88331475288  39.453125 34.0542549238201  39.21875 34.1583054626533  L 26.71875 39.866220735786  C 26.40625 40.0297287253809  26.09375 40.0297287253809  25.78125 39.866220735786  L 13.75 34.38127090301  L 1.71875 39.866220735786  C 1.58854166666667 39.9405425492382  1.43229166666667 39.9777034559643  1.25 39.9777034559643  C 1.00260416666667 39.9777034559643  0.768229166666667 39.8959494611669  0.546875 39.7324414715719  C 0.182291666666667 39.4351542177629  0 39.041248606466  0 38.5507246376812  L 0 7.1571906354515  C 0 6.85990338164251  0.0716145833333333 6.59234485321441  0.21484375 6.35451505016722  C 0.358072916666667 6.11668524712003  0.546875 5.94574507617986  0.78125 5.84169453734671  L 13.28125 0.133779264214047  C 13.59375 -0.0297287253809042  13.90625 -0.0297287253809042  14.21875 0.133779264214047  L 26.25 5.61872909698997  L 38.28125 0.133779264214047  Z M 25 8.40579710144928  L 15 3.27759197324415  L 15 31.5942028985507  L 25 36.7224080267559  L 25 8.40579710144928  Z M 13.125 3.27759197324415  L 3 8.11594202898551  L 3 36.4325529542921  L 13.125 31.5942028985507  L 13.125 3.27759197324415  Z M 26.875 36.7224080267559  L 37 31.8840579710145  L 37 3.56744704570791  L 26.875 8.40579710144928  L 26.875 36.7224080267559  Z " fill-rule="nonzero" fill="#000000" stroke="none" transform="matrix(1 0 0 1 13 150 )" />
  </g>
</svg>